<svg xmlns="http://www.w3.org/2000/svg" width="189.265" height="165.523" viewBox="0 0 189.265 165.523">
  <g id="analytics" transform="translate(-110.643 -299.95)">
    <path id="Path_99" data-name="Path 99" d="M1040.247,1279.1c-1.715-3.43-41.16-35.443-4-58.31s38.3-36.015,78.318-25.153,54.309,66.313,82.32,73.173-4.573,95.469-68.029,88.037-68.6-10.862-75.46-25.153S1041.962,1282.531,1040.247,1279.1Z" transform="translate(-907.091 -891.817)" fill="#dedede"/>
    <g id="_ionicons_svg_md-analytics" transform="translate(78.643 308.1)">
      <path id="Path_138" data-name="Path 138" d="M107.057,171.715l-18.84,28.822a10.263,10.263,0,0,1,2.333,6.546,10.371,10.371,0,1,1-20.741,0,11.363,11.363,0,0,1,.173-1.923l-12.445-7.238a10.307,10.307,0,0,1-7.195,2.9,10.428,10.428,0,0,1-5.1-1.34L32,211.879v12.358a9.248,9.248,0,0,0,9.225,9.226h78.363a9.248,9.248,0,0,0,9.226-9.226V178.3l-12.661-8.4a10.363,10.363,0,0,1-9.1,1.815Z" transform="translate(0 -95.563)" fill="#7e7e7e"/>
      <path id="Path_139" data-name="Path 139" d="M50.365,84.513A10.373,10.373,0,0,1,60.735,94.884c0,.454-.043.907-.086,1.34l12.985,7.259a10.279,10.279,0,0,1,6.568-2.333,10.85,10.85,0,0,1,2.247.238l18.883-29.254a10.261,10.261,0,0,1-1.923-6.006,10.371,10.371,0,0,1,20.741,0,11.271,11.271,0,0,1-.281,2.441l8.923,5.963V57.225A9.248,9.248,0,0,0,119.567,48H41.225A9.248,9.248,0,0,0,32,57.225v49.541l8.642-8.275a10.37,10.37,0,0,1,9.722-13.979Z" transform="translate(0 0)" fill="#7e7e7e"/>
    </g>
  </g>
</svg>
