<svg id="Layer_1" data-name="Layer 1" xmlns="http://www.w3.org/2000/svg" viewBox="0 0 430.27 494.37">
  <defs>
    <style>
      .cls-1 {
        fill: #010101;
        opacity: 0.13;
      }

      .cls-2 {
        fill: #7d7d7d;
      }

      .cls-3 {
        fill: #fff;
      }

      .cls-4 {
        fill: #3e3e3e;
      }

      .cls-5 {
        fill: #c7c6c5;
      }

      .cls-6 {
        fill: none;
        stroke: #fff;
        stroke-miterlimit: 10;
        stroke-width: 2.83px;
      }

      .cls-7 {
        fill: #9f9f9f;
      }

      .cls-8 {
        fill: #686969;
      }
    </style>
  </defs>
  <title>checklist</title>
  <g>
    <path class="cls-1" d="M114.54,142c19.1-6.46,178.65-58.3,250.37,20.9,8.6,9.49,8.48,12.63,32.64,69.86,59.48,140.88,71,147.48,66.8,166.75C442.38,499.6,85.56,528.26,61,459.71c-13.9-38.78,19.06-92,4.08-159.61C51.93,240.81,30.94,232.16,35.5,193.53,38.54,167.72,80.67,153.48,114.54,142Z" transform="translate(-34.86 -2.82)"/>
    <rect class="cls-2" x="80.18" y="39.26" width="228.45" height="344.2" rx="24.54"/>
    <rect class="cls-3" x="92.13" y="58.13" width="203.4" height="306.47" rx="24.54"/>
    <path class="cls-4" d="M303.89,39.53h-53.2V18.62a15.81,15.81,0,0,0-31.62,0V39.53H161.29a2.39,2.39,0,0,0-2.39,2.39V62.13a2.39,2.39,0,0,0,2.39,2.39h142.6a2.38,2.38,0,0,0,2.38-2.39V41.92A2.38,2.38,0,0,0,303.89,39.53Zm-69-28a7.65,7.65,0,1,1-7.65,7.65A7.66,7.66,0,0,1,234.88,11.48Z" transform="translate(-34.86 -2.82)"/>
    <path class="cls-5" d="M268.54,126.73A35.7,35.7,0,1,1,232.84,91,35.45,35.45,0,0,1,268.54,126.73Z" transform="translate(-34.86 -2.82)"/>
    <circle class="cls-6" cx="198.23" cy="113.46" r="16.32"/>
    <path class="cls-6" d="M262.17,147.07a35.7,35.7,0,0,1-58.3.51,10.57,10.57,0,0,1,10.21-7.85h38A10.56,10.56,0,0,1,262.17,147.07Z" transform="translate(-34.86 -2.82)"/>
    <g>
      <rect class="cls-7" x="111.04" y="208.82" width="164.71" height="8.16" rx="3.56"/>
      <rect class="cls-8" x="122" y="202.95" width="30.6" height="20.4" rx="8.89"/>
    </g>
    <g>
      <rect class="cls-7" x="111.04" y="242.47" width="164.71" height="8.16" rx="3.56"/>
      <rect class="cls-8" x="122" y="236.61" width="30.6" height="20.4" rx="8.89"/>
    </g>
    <g>
      <rect class="cls-7" x="111.04" y="274.09" width="164.71" height="8.16" rx="3.56"/>
      <rect class="cls-8" x="122" y="268.22" width="30.6" height="20.4" rx="8.89"/>
    </g>
    <g>
      <rect class="cls-7" x="111.04" y="305.7" width="164.71" height="8.16" rx="3.56"/>
      <rect class="cls-8" x="122" y="299.84" width="30.6" height="20.4" rx="8.89"/>
    </g>
  </g>
</svg>
