<svg xmlns="http://www.w3.org/2000/svg" xmlns:xlink="http://www.w3.org/1999/xlink" width="414" height="214" viewBox="0 0 414 214">
  <defs>
    <clipPath id="clip-path">
      <rect id="Rectangle_82" data-name="Rectangle 82" width="414" height="214" transform="translate(0 682)" fill="#fff" stroke="#707070" stroke-width="1"/>
    </clipPath>
    <linearGradient id="linear-gradient" x1="0.5" x2="0.5" y2="1" gradientUnits="objectBoundingBox">
      <stop offset="0" stop-color="#4f1221"/>
      <stop offset="0.427" stop-color="#7d1830"/>
      <stop offset="1" stop-color="#811831"/>
    </linearGradient>
    <linearGradient id="linear-gradient-2" x1="0.5" x2="0.5" y2="1" gradientUnits="objectBoundingBox">
      <stop offset="0" stop-color="#4f1221"/>
      <stop offset="0.439" stop-color="#521222"/>
      <stop offset="1" stop-color="#831832"/>
    </linearGradient>
  </defs>
  <g id="Mask_Group_7" data-name="Mask Group 7" transform="translate(0 -682)" clip-path="url(#clip-path)">
    <g id="Group_171" data-name="Group 171">
      <g id="Group_17" data-name="Group 17">
        <path id="Path_1" data-name="Path 1" d="M1452,798.585s80.91-70.851,216.57-34.052,197.175,24.716,197.175,24.716V895.8H1452Z" transform="translate(-1452)" fill="url(#linear-gradient)"/>
        <path id="Path_2" data-name="Path 2" d="M1452,761.127s79.535,44.268,230.9,33.558,183.5-73.542,183.5-73.542V896.073H1452Z" transform="translate(-1452)" fill="url(#linear-gradient-2)"/>
      </g>
      <g id="Group_16" data-name="Group 16" transform="translate(-55.393 167.574) rotate(-26)">
        <path id="Subtraction_3" data-name="Subtraction 3" d="M35.561,14H19.61L15.3,7H.223A9,9,0,0,1,9,0H55a4.994,4.994,0,0,1,1.356.187A.867.867,0,0,1,56.427.6V6.107H60v4.849H56.795L55.074,7H40.7l-5.144,7Z" transform="translate(87.156 698.715)" fill="#333"/>
        <path id="Subtraction_4" data-name="Subtraction 4" d="M4.179,5.575H0v-3.4L4.179,0V5.574Z" transform="translate(83 706.019)" fill="#323232"/>
        <path id="Path_7" data-name="Path 7" d="M1569.285,701.715l-12.239,1.583-2.391,2.427h14.63Z" transform="translate(-1461.388 -7.507)" fill="#333"/>
        <path id="Subtraction_7" data-name="Subtraction 7" d="M33,12H0V8.086L3.131,0H31a2,2,0,0,1,2,2V12ZM3.616.647.839,8.129v3.479H9.588l1.6-10.96ZM13.921.522V11.479H27.843V2.522a2,2,0,0,0-2-2Z" transform="translate(108.156 685.715)" fill="#333"/>
        <g id="Group_5" data-name="Group 5" transform="translate(143.591 690.399)">
          <rect id="Rectangle_37" data-name="Rectangle 37" width="7" height="14" rx="2" transform="translate(-0.435 0.316)" fill="#333"/>
          <g id="Group_4" data-name="Group 4">
            <g id="Component_1_5" data-name="Component 1 – 5">
              <path id="Path_10" data-name="Path 10" d="M1651,699.044l1.05-.622.785.622.893-.622.92.622.785-.622.812.622.839-.622.785.622" transform="translate(-1651 -698.422)" fill="none" stroke="#fff" stroke-linecap="round" stroke-linejoin="round" stroke-width="1"/>
            </g>
            <g id="Component_1_6" data-name="Component 1 – 6" transform="translate(0 1.567)">
              <path id="Path_10-2" data-name="Path 10" d="M1651,699.044l1.05-.622.785.622.893-.622.92.622.785-.622.812.622.839-.622.785.622" transform="translate(-1651 -698.422)" fill="none" stroke="#fff" stroke-linecap="round" stroke-linejoin="round" stroke-width="1"/>
            </g>
            <g id="Component_1_7" data-name="Component 1 – 7" transform="translate(0 3.237)">
              <path id="Path_10-3" data-name="Path 10" d="M1651,699.044l1.05-.622.785.622.893-.622.92.622.785-.622.812.622.839-.622.785.622" transform="translate(-1651 -698.422)" fill="none" stroke="#fff" stroke-linecap="round" stroke-linejoin="round" stroke-width="1"/>
            </g>
            <g id="Component_1_8" data-name="Component 1 – 8" transform="translate(0 4.856)">
              <path id="Path_10-4" data-name="Path 10" d="M1651,699.044l1.05-.622.785.622.893-.622.92.622.785-.622.812.622.839-.622.785.622" transform="translate(-1651 -698.422)" fill="none" stroke="#fff" stroke-linecap="round" stroke-linejoin="round" stroke-width="1"/>
            </g>
            <g id="Component_1_9" data-name="Component 1 – 9" transform="translate(0 6.474)">
              <path id="Path_10-5" data-name="Path 10" d="M1651,699.044l1.05-.622.785.622.893-.622.92.622.785-.622.812.622.839-.622.785.622" transform="translate(-1651 -698.422)" fill="none" stroke="#fff" stroke-linecap="round" stroke-linejoin="round" stroke-width="1"/>
            </g>
            <g id="Component_1_10" data-name="Component 1 – 10" transform="translate(0 8.093)">
              <path id="Path_10-6" data-name="Path 10" d="M1651,699.044l1.05-.622.785.622.893-.622.92.622.785-.622.812.622.839-.622.785.622" transform="translate(-1651 -698.422)" fill="none" stroke="#fff" stroke-linecap="round" stroke-linejoin="round" stroke-width="1"/>
            </g>
            <g id="Component_1_11" data-name="Component 1 – 11" transform="translate(0 9.711)">
              <path id="Path_10-7" data-name="Path 10" d="M1651,699.044l1.05-.622.785.622.893-.622.92.622.785-.622.812.622.839-.622.785.622" transform="translate(-1651 -698.422)" fill="none" stroke="#fff" stroke-linecap="round" stroke-linejoin="round" stroke-width="1"/>
            </g>
            <g id="Component_1_12" data-name="Component 1 – 12" transform="translate(0 11.33)">
              <path id="Path_10-8" data-name="Path 10" d="M1651,699.044l1.05-.622.785.622.893-.622.92.622.785-.622.812.622.839-.622.785.622" transform="translate(-1651 -698.422)" fill="none" stroke="#fff" stroke-linecap="round" stroke-linejoin="round" stroke-width="1"/>
            </g>
            <g id="Component_1_13" data-name="Component 1 – 13" transform="translate(0 13)">
              <path id="Path_10-9" data-name="Path 10" d="M1651,699.044l1.05-.622.785.622.893-.622.92.622.785-.622.812.622.839-.622.785.622" transform="translate(-1651 -698.422)" fill="none" stroke="#fff" stroke-linecap="round" stroke-linejoin="round" stroke-width="1"/>
            </g>
          </g>
        </g>
        <g id="Group_11" data-name="Group 11" transform="translate(127.399 705.849)">
          <circle id="Ellipse_1" data-name="Ellipse 1" cx="7" cy="7" r="7" transform="translate(-0.243 -0.134)" fill="#333"/>
          <g id="Ellipse_2" data-name="Ellipse 2" transform="translate(1.757 1.866)" fill="none" stroke="#fff" stroke-width="0.5">
            <circle cx="5" cy="5" r="5" stroke="none"/>
            <circle cx="5" cy="5" r="4.75" fill="none"/>
          </g>
          <g id="Ellipse_3" data-name="Ellipse 3" transform="translate(2.757 2.866)" fill="none" stroke="#fff" stroke-width="1">
            <circle cx="4" cy="4" r="4" stroke="none"/>
            <circle cx="4" cy="4" r="3.5" fill="none"/>
          </g>
          <g id="Group_8" data-name="Group 8" transform="translate(3.135 2.873)">
            <g id="Group_6" data-name="Group 6" transform="translate(3.917)">
              <line id="Line_1" data-name="Line 1" y2="3.134" fill="none" stroke="#fff" stroke-linecap="round" stroke-width="1"/>
              <line id="Line_2" data-name="Line 2" y2="3.134" transform="translate(0 4.701)" fill="none" stroke="#fff" stroke-linecap="round" stroke-width="1"/>
            </g>
            <g id="Group_7" data-name="Group 7" transform="matrix(-0.017, 1, -1, -0.017, 7.538, 3.981)">
              <line id="Line_1-2" data-name="Line 1" y2="3.134" transform="translate(0)" fill="none" stroke="#fff" stroke-linecap="round" stroke-width="1"/>
              <line id="Line_2-2" data-name="Line 2" y2="3.134" transform="translate(0 4.405)" fill="none" stroke="#fff" stroke-linecap="round" stroke-width="1"/>
            </g>
          </g>
          <g id="Group_9" data-name="Group 9" transform="translate(6.794 1.57) rotate(45)">
            <g id="Group_6-2" data-name="Group 6" transform="translate(3.689)">
              <line id="Line_1-3" data-name="Line 1" x1="0.141" y2="2.83" transform="translate(0.228)" fill="none" stroke="#fff" stroke-linecap="round" stroke-width="1"/>
              <line id="Line_2-3" data-name="Line 2" x2="0.369" y2="3.324" transform="translate(0 4.063)" fill="none" stroke="#fff" stroke-linecap="round" stroke-width="1"/>
            </g>
            <g id="Group_7-2" data-name="Group 7" transform="matrix(-0.017, 1, -1, -0.017, 7.538, 3.677)">
              <line id="Line_1-4" data-name="Line 1" y2="3.134" transform="translate(0)" fill="none" stroke="#fff" stroke-linecap="round" stroke-width="1"/>
              <line id="Line_2-4" data-name="Line 2" y2="3.134" transform="translate(0 4.405)" fill="none" stroke="#fff" stroke-linecap="round" stroke-width="1"/>
            </g>
          </g>
        </g>
        <g id="Group_12" data-name="Group 12" transform="translate(88.223 705.849)">
          <circle id="Ellipse_1-2" data-name="Ellipse 1" cx="7" cy="7" r="7" transform="translate(-0.067 -0.134)" fill="#333"/>
          <g id="Ellipse_2-2" data-name="Ellipse 2" transform="translate(1.933 1.866)" fill="none" stroke="#fff" stroke-width="0.5">
            <circle cx="5" cy="5" r="5" stroke="none"/>
            <circle cx="5" cy="5" r="4.75" fill="none"/>
          </g>
          <g id="Ellipse_3-2" data-name="Ellipse 3" transform="translate(2.933 2.866)" fill="none" stroke="#fff" stroke-width="1">
            <circle cx="4" cy="4" r="4" stroke="none"/>
            <circle cx="4" cy="4" r="3.5" fill="none"/>
          </g>
          <g id="Group_8-2" data-name="Group 8" transform="translate(3.135 2.873)">
            <g id="Group_6-3" data-name="Group 6" transform="translate(3.917)">
              <line id="Line_1-5" data-name="Line 1" y2="3.134" fill="none" stroke="#fff" stroke-linecap="round" stroke-width="1"/>
              <line id="Line_2-5" data-name="Line 2" y2="3.134" transform="translate(0 4.701)" fill="none" stroke="#fff" stroke-linecap="round" stroke-width="1"/>
            </g>
            <g id="Group_7-3" data-name="Group 7" transform="matrix(-0.017, 1, -1, -0.017, 7.538, 3.981)">
              <line id="Line_1-6" data-name="Line 1" y2="3.134" transform="translate(0)" fill="none" stroke="#fff" stroke-linecap="round" stroke-width="1"/>
              <line id="Line_2-6" data-name="Line 2" y2="3.134" transform="translate(0 4.405)" fill="none" stroke="#fff" stroke-linecap="round" stroke-width="1"/>
            </g>
          </g>
          <g id="Group_9-2" data-name="Group 9" transform="translate(6.794 1.57) rotate(45)">
            <g id="Group_6-4" data-name="Group 6" transform="translate(3.689)">
              <line id="Line_1-7" data-name="Line 1" x1="0.141" y2="2.83" transform="translate(0.228)" fill="none" stroke="#fff" stroke-linecap="round" stroke-width="1"/>
              <line id="Line_2-7" data-name="Line 2" x2="0.369" y2="3.324" transform="translate(0 4.063)" fill="none" stroke="#fff" stroke-linecap="round" stroke-width="1"/>
            </g>
            <g id="Group_7-4" data-name="Group 7" transform="matrix(-0.017, 1, -1, -0.017, 7.538, 3.677)">
              <line id="Line_1-8" data-name="Line 1" y2="3.134" transform="translate(0)" fill="none" stroke="#fff" stroke-linecap="round" stroke-width="1"/>
              <line id="Line_2-8" data-name="Line 2" y2="3.134" transform="translate(0 4.405)" fill="none" stroke="#fff" stroke-linecap="round" stroke-width="1"/>
            </g>
          </g>
        </g>
      </g>
      <g id="Group_18" data-name="Group 18" transform="translate(8 814.142)">
        <path id="Path_1-2" data-name="Path 1" d="M1865.745,798.585s-80.91-70.851-216.57-34.052S1452,789.248,1452,789.248V895.8h413.745Z" transform="translate(-1379.342 -757.142)" fill="url(#linear-gradient)"/>
        <path id="Path_2-2" data-name="Path 2" d="M1866.4,761.127s-79.535,44.268-230.9,33.558S1452,721.142,1452,721.142V896.073h414.4Z" transform="translate(-1460 -741.142)" fill="url(#linear-gradient-2)"/>
      </g>
    </g>
  </g>
</svg>
