<svg xmlns="http://www.w3.org/2000/svg" xmlns:xlink="http://www.w3.org/1999/xlink" width="414" height="896" viewBox="0 0 414 896">
  <defs>
    <clipPath id="clip-path">
      <rect id="Rectangle_77" data-name="Rectangle 77" width="414" height="896" fill="#fff" stroke="#707070" stroke-width="1"/>
    </clipPath>
    <linearGradient id="linear-gradient" x1="0.5" x2="0.5" y2="1" gradientUnits="objectBoundingBox">
      <stop offset="0" stop-color="#4a0909"/>
      <stop offset="1" stop-color="#722"/>
    </linearGradient>
    <filter id="Rectangle_19" x="151.106" y="52.106" width="731.788" height="731.788" filterUnits="userSpaceOnUse">
      <feOffset dy="3" input="SourceAlpha"/>
      <feGaussianBlur stdDeviation="3" result="blur"/>
      <feFlood flood-opacity="0.161"/>
      <feComposite operator="in" in2="blur"/>
      <feComposite in="SourceGraphic"/>
    </filter>
    <filter id="Rectangle_21" x="-322.894" y="-257.894" width="731.788" height="731.788" filterUnits="userSpaceOnUse">
      <feOffset dy="3" input="SourceAlpha"/>
      <feGaussianBlur stdDeviation="3" result="blur-2"/>
      <feFlood flood-opacity="0.161"/>
      <feComposite operator="in" in2="blur-2"/>
      <feComposite in="SourceGraphic"/>
    </filter>
    <filter id="Rectangle_22" x="-181.894" y="330.106" width="731.788" height="731.788" filterUnits="userSpaceOnUse">
      <feOffset dy="3" input="SourceAlpha"/>
      <feGaussianBlur stdDeviation="3" result="blur-3"/>
      <feFlood flood-opacity="0.161"/>
      <feComposite operator="in" in2="blur-3"/>
      <feComposite in="SourceGraphic"/>
    </filter>
    <filter id="Rectangle_25" x="-140.244" y="-111.244" width="400.487" height="400.487" filterUnits="userSpaceOnUse">
      <feOffset dy="3" input="SourceAlpha"/>
      <feGaussianBlur stdDeviation="3" result="blur-4"/>
      <feFlood flood-opacity="0.161"/>
      <feComposite operator="in" in2="blur-4"/>
      <feComposite in="SourceGraphic"/>
    </filter>
    <filter id="Rectangle_26" x="-283.244" y="523.756" width="400.487" height="400.487" filterUnits="userSpaceOnUse">
      <feOffset dy="3" input="SourceAlpha"/>
      <feGaussianBlur stdDeviation="3" result="blur-5"/>
      <feFlood flood-opacity="0.161"/>
      <feComposite operator="in" in2="blur-5"/>
      <feComposite in="SourceGraphic"/>
    </filter>
    <filter id="Rectangle_27" x="-105.244" y="250.756" width="400.487" height="400.487" filterUnits="userSpaceOnUse">
      <feOffset dy="3" input="SourceAlpha"/>
      <feGaussianBlur stdDeviation="3" result="blur-6"/>
      <feFlood flood-opacity="0.161"/>
      <feComposite operator="in" in2="blur-6"/>
      <feComposite in="SourceGraphic"/>
    </filter>
  </defs>
  <g id="Quiz_Main_Page" data-name="Quiz Main Page" clip-path="url(#clip-path)">
    <g id="Group_18" data-name="Group 18">
      <rect id="Rectangle_18" data-name="Rectangle 18" width="414" height="896" fill="#4a0909"/>
      <g transform="matrix(1, 0, 0, 1, 0, 0)" filter="url(#Rectangle_19)">
        <rect id="Rectangle_19-2" data-name="Rectangle 19" width="516" height="516" rx="35" transform="matrix(0.54, -0.84, 0.84, 0.54, 160.11, 490.86)" fill="url(#linear-gradient)"/>
      </g>
      <rect id="Rectangle_20" data-name="Rectangle 20" width="516" height="516" rx="35" transform="matrix(0.545, -0.839, 0.839, 0.545, -425.894, 778.86)" fill="url(#linear-gradient)"/>
      <g transform="matrix(1, 0, 0, 1, 0, 0)" filter="url(#Rectangle_21)">
        <rect id="Rectangle_21-2" data-name="Rectangle 21" width="516" height="516" rx="35" transform="matrix(0.54, -0.84, 0.84, 0.54, -313.89, 180.86)" opacity="0.55" fill="url(#linear-gradient)"/>
      </g>
      <g transform="matrix(1, 0, 0, 1, 0, 0)" filter="url(#Rectangle_22)">
        <rect id="Rectangle_22-2" data-name="Rectangle 22" width="516" height="516" rx="35" transform="matrix(0.54, -0.84, 0.84, 0.54, -172.89, 768.86)" opacity="0.55" fill="url(#linear-gradient)"/>
      </g>
      <rect id="Rectangle_23" data-name="Rectangle 23" width="280" height="280" rx="35" transform="matrix(0.545, -0.839, 0.839, 0.545, 288.337, 743.164)" opacity="0.55" fill="url(#linear-gradient)"/>
      <rect id="Rectangle_24" data-name="Rectangle 24" width="280" height="280" rx="35" transform="matrix(0.545, -0.839, 0.839, 0.545, 315.337, 231.164)" opacity="0.55" fill="url(#linear-gradient)"/>
      <g transform="matrix(1, 0, 0, 1, 0, 0)" filter="url(#Rectangle_25)">
        <rect id="Rectangle_25-2" data-name="Rectangle 25" width="280" height="280" rx="35" transform="translate(251.24 34.76) rotate(120)" opacity="0.55" fill="url(#linear-gradient)"/>
      </g>
      <g transform="matrix(1, 0, 0, 1, 0, 0)" filter="url(#Rectangle_26)">
        <rect id="Rectangle_26-2" data-name="Rectangle 26" width="280" height="280" rx="35" transform="translate(108.24 669.76) rotate(120)" opacity="0.55" fill="url(#linear-gradient)"/>
      </g>
      <g transform="matrix(1, 0, 0, 1, 0, 0)" filter="url(#Rectangle_27)">
        <rect id="Rectangle_27-2" data-name="Rectangle 27" width="280" height="280" rx="35" transform="translate(286.24 396.76) rotate(120)" opacity="0.55" fill="url(#linear-gradient)"/>
      </g>
      <path id="Path_4" data-name="Path 4" d="M633.557,391.073a.249.249,0,0,0-.251.251v-.251Z" transform="translate(-448.916 -107)" fill="#ee3858"/>
      <rect id="Rectangle_37" data-name="Rectangle 37" width="76.847" height="48.777" transform="translate(303.894 359.633)" fill="none"/>
      <path id="Path_8" data-name="Path 8" d="M809.4,497.58q-3.853-2.85-7.74-5.642t-7.834-5.476c-2.627-1.8-5.1-3.859-7.659-5.794a42.139,42.139,0,0,0-3.964-2.65,37.038,37.038,0,0,0-4.28-2.1,59.072,59.072,0,0,0-9.23-3.038,41.374,41.374,0,0,0-10.238-1.243l-.645,1.15a40.752,40.752,0,0,0,6.3,8.162,60.186,60.186,0,0,0,7.33,6.38,38.1,38.1,0,0,0,4,2.591,40.248,40.248,0,0,0,4.3,2.053c2.967,1.208,6,2.275,8.889,3.624q4.345,1.988,8.714,3.928c2.932,1.279,5.864,2.522,8.819,3.765,5.911,2.427,11.809,4.89,17.838,7.118l.656-1.137C819.649,505.238,814.524,501.414,809.4,497.58Zm-40.941-16.841a2.862,2.862,0,1,1,2.873-2.862A2.859,2.859,0,0,1,768.458,480.739Z" transform="translate(-448.916 -107)" fill="none"/>
    </g>
  </g>
</svg>
