<svg xmlns="http://www.w3.org/2000/svg" xmlns:xlink="http://www.w3.org/1999/xlink" width="414" height="896" viewBox="0 0 414 896">
  <defs>
    <clipPath id="clip-path">
      <rect id="Rectangle_79" data-name="Rectangle 79" width="414" height="896" fill="#fff" stroke="#707070" stroke-width="1"/>
    </clipPath>
    <linearGradient id="linear-gradient" x1="0.5" x2="0.5" y2="1" gradientUnits="objectBoundingBox">
      <stop offset="0" stop-color="#fff"/>
      <stop offset="1" stop-color="#dcc7c7"/>
    </linearGradient>
    <filter id="Rectangle_41" x="298.076" y="462.381" width="653.543" height="653.543" filterUnits="userSpaceOnUse">
      <feOffset dy="3" input="SourceAlpha"/>
      <feGaussianBlur stdDeviation="3" result="blur"/>
      <feFlood flood-opacity="0.161"/>
      <feComposite operator="in" in2="blur"/>
      <feComposite in="SourceGraphic"/>
    </filter>
    <filter id="Rectangle_42" x="251.348" y="65.653" width="724.999" height="724.999" filterUnits="userSpaceOnUse">
      <feOffset dy="3" input="SourceAlpha"/>
      <feGaussianBlur stdDeviation="3" result="blur-2"/>
      <feFlood flood-opacity="0.161"/>
      <feComposite operator="in" in2="blur-2"/>
      <feComposite in="SourceGraphic"/>
    </filter>
    <filter id="Rectangle_43" x="-81.652" y="779.653" width="724.999" height="724.999" filterUnits="userSpaceOnUse">
      <feOffset dy="3" input="SourceAlpha"/>
      <feGaussianBlur stdDeviation="3" result="blur-3"/>
      <feFlood flood-opacity="0.161"/>
      <feComposite operator="in" in2="blur-3"/>
      <feComposite in="SourceGraphic"/>
    </filter>
    <filter id="Rectangle_44" x="355.348" y="713.653" width="724.999" height="724.999" filterUnits="userSpaceOnUse">
      <feOffset dy="3" input="SourceAlpha"/>
      <feGaussianBlur stdDeviation="3" result="blur-4"/>
      <feFlood flood-opacity="0.161"/>
      <feComposite operator="in" in2="blur-4"/>
      <feComposite in="SourceGraphic"/>
    </filter>
    <filter id="Rectangle_45" x="117.79" y="-195.905" width="712.115" height="712.115" filterUnits="userSpaceOnUse">
      <feOffset dy="3" input="SourceAlpha"/>
      <feGaussianBlur stdDeviation="3" result="blur-5"/>
      <feFlood flood-opacity="0.161"/>
      <feComposite operator="in" in2="blur-5"/>
      <feComposite in="SourceGraphic"/>
    </filter>
    <filter id="Rectangle_46" x="-113.21" y="367.095" width="712.115" height="712.115" filterUnits="userSpaceOnUse">
      <feOffset dy="3" input="SourceAlpha"/>
      <feGaussianBlur stdDeviation="3" result="blur-6"/>
      <feFlood flood-opacity="0.161"/>
      <feComposite operator="in" in2="blur-6"/>
      <feComposite in="SourceGraphic"/>
    </filter>
  </defs>
  <g id="Quiz_Done_Fail" data-name="Quiz Done Fail" clip-path="url(#clip-path)">
    <g id="Group_30" data-name="Group 30" transform="translate(338 285)">
      <g transform="matrix(1, 0, 0, 1, -338, -285)" filter="url(#Rectangle_41)">
        <rect id="Rectangle_41-2" data-name="Rectangle 41" width="500" height="500" rx="35" transform="matrix(-0.95, -0.33, 0.33, -0.95, 779.84, 1103.92)" opacity="0.55" fill="url(#linear-gradient)"/>
      </g>
      <g transform="matrix(1, 0, 0, 1, -338, -285)" filter="url(#Rectangle_42)">
        <rect id="Rectangle_42-2" data-name="Rectangle 42" width="500" height="500" rx="35" transform="matrix(-0.72, 0.69, -0.69, -0.72, 967.35, 431.32)" opacity="0.55" fill="url(#linear-gradient)"/>
      </g>
      <g transform="matrix(1, 0, 0, 1, -338, -285)" filter="url(#Rectangle_43)">
        <rect id="Rectangle_43-2" data-name="Rectangle 43" width="500" height="500" rx="35" transform="matrix(-0.72, 0.69, -0.69, -0.72, 634.35, 1145.32)" opacity="0.55" fill="url(#linear-gradient)"/>
      </g>
      <g transform="matrix(1, 0, 0, 1, -338, -285)" filter="url(#Rectangle_44)">
        <rect id="Rectangle_44-2" data-name="Rectangle 44" width="500" height="500" rx="35" transform="matrix(-0.72, 0.69, -0.69, -0.72, 1071.35, 1079.32)" opacity="0.55" fill="url(#linear-gradient)"/>
      </g>
      <g transform="matrix(1, 0, 0, 1, -338, -285)" filter="url(#Rectangle_45)">
        <rect id="Rectangle_45-2" data-name="Rectangle 45" width="500" height="500" rx="35" transform="translate(126.79 89.69) rotate(-34)" opacity="0.55" fill="url(#linear-gradient)"/>
      </g>
      <g transform="matrix(1, 0, 0, 1, -338, -285)" filter="url(#Rectangle_46)">
        <rect id="Rectangle_46-2" data-name="Rectangle 46" width="500" height="500" rx="35" transform="translate(-104.21 652.69) rotate(-34)" opacity="0.55" fill="url(#linear-gradient)"/>
      </g>
    </g>
  </g>
</svg>
