<svg xmlns="http://www.w3.org/2000/svg" xmlns:xlink="http://www.w3.org/1999/xlink" width="414" height="896" viewBox="0 0 414 896">
  <defs>
    <clipPath id="clip-path">
      <rect id="Rectangle_81" data-name="Rectangle 81" width="414" height="896" fill="#fff" stroke="#707070" stroke-width="1"/>
    </clipPath>
    <linearGradient id="linear-gradient" x1="0.5" x2="0.5" y2="1" gradientUnits="objectBoundingBox">
      <stop offset="0" stop-color="#4a0909"/>
      <stop offset="1" stop-color="#722"/>
    </linearGradient>
    <filter id="Rectangle_19" x="151.106" y="52.106" width="731.788" height="731.788" filterUnits="userSpaceOnUse">
      <feOffset dy="3" input="SourceAlpha"/>
      <feGaussianBlur stdDeviation="3" result="blur"/>
      <feFlood flood-opacity="0.161"/>
      <feComposite operator="in" in2="blur"/>
      <feComposite in="SourceGraphic"/>
    </filter>
    <filter id="Rectangle_21" x="-322.894" y="-257.894" width="731.788" height="731.788" filterUnits="userSpaceOnUse">
      <feOffset dy="3" input="SourceAlpha"/>
      <feGaussianBlur stdDeviation="3" result="blur-2"/>
      <feFlood flood-opacity="0.161"/>
      <feComposite operator="in" in2="blur-2"/>
      <feComposite in="SourceGraphic"/>
    </filter>
    <filter id="Rectangle_22" x="-181.894" y="330.106" width="731.788" height="731.788" filterUnits="userSpaceOnUse">
      <feOffset dy="3" input="SourceAlpha"/>
      <feGaussianBlur stdDeviation="3" result="blur-3"/>
      <feFlood flood-opacity="0.161"/>
      <feComposite operator="in" in2="blur-3"/>
      <feComposite in="SourceGraphic"/>
    </filter>
    <filter id="Rectangle_25" x="-140.244" y="-111.244" width="400.487" height="400.487" filterUnits="userSpaceOnUse">
      <feOffset dy="3" input="SourceAlpha"/>
      <feGaussianBlur stdDeviation="3" result="blur-4"/>
      <feFlood flood-opacity="0.161"/>
      <feComposite operator="in" in2="blur-4"/>
      <feComposite in="SourceGraphic"/>
    </filter>
    <filter id="Rectangle_26" x="-283.244" y="523.756" width="400.487" height="400.487" filterUnits="userSpaceOnUse">
      <feOffset dy="3" input="SourceAlpha"/>
      <feGaussianBlur stdDeviation="3" result="blur-5"/>
      <feFlood flood-opacity="0.161"/>
      <feComposite operator="in" in2="blur-5"/>
      <feComposite in="SourceGraphic"/>
    </filter>
    <filter id="Rectangle_27" x="-105.244" y="250.756" width="400.487" height="400.487" filterUnits="userSpaceOnUse">
      <feOffset dy="3" input="SourceAlpha"/>
      <feGaussianBlur stdDeviation="3" result="blur-6"/>
      <feFlood flood-opacity="0.161"/>
      <feComposite operator="in" in2="blur-6"/>
      <feComposite in="SourceGraphic"/>
    </filter>
  </defs>
  <g id="Request_Successful" data-name="Request Successful" clip-path="url(#clip-path)">
    <g id="Group_175" data-name="Group 175">
      <rect id="Rectangle_18" data-name="Rectangle 18" width="414" height="896" fill="#4a0909"/>
      <g transform="matrix(1, 0, 0, 1, 0, 0)" filter="url(#Rectangle_19)">
        <rect id="Rectangle_19-2" data-name="Rectangle 19" width="516" height="516" rx="35" transform="matrix(0.54, -0.84, 0.84, 0.54, 160.11, 490.86)" fill="url(#linear-gradient)"/>
      </g>
      <rect id="Rectangle_20" data-name="Rectangle 20" width="516" height="516" rx="35" transform="matrix(0.545, -0.839, 0.839, 0.545, -425.894, 778.86)" fill="url(#linear-gradient)"/>
      <g transform="matrix(1, 0, 0, 1, 0, 0)" filter="url(#Rectangle_21)">
        <rect id="Rectangle_21-2" data-name="Rectangle 21" width="516" height="516" rx="35" transform="matrix(0.54, -0.84, 0.84, 0.54, -313.89, 180.86)" opacity="0.55" fill="url(#linear-gradient)"/>
      </g>
      <g transform="matrix(1, 0, 0, 1, 0, 0)" filter="url(#Rectangle_22)">
        <rect id="Rectangle_22-2" data-name="Rectangle 22" width="516" height="516" rx="35" transform="matrix(0.54, -0.84, 0.84, 0.54, -172.89, 768.86)" opacity="0.55" fill="url(#linear-gradient)"/>
      </g>
      <rect id="Rectangle_23" data-name="Rectangle 23" width="280" height="280" rx="35" transform="matrix(0.545, -0.839, 0.839, 0.545, 288.337, 743.164)" opacity="0.55" fill="url(#linear-gradient)"/>
      <rect id="Rectangle_24" data-name="Rectangle 24" width="280" height="280" rx="35" transform="matrix(0.545, -0.839, 0.839, 0.545, 315.337, 229.164)" opacity="0.55" fill="url(#linear-gradient)"/>
      <g transform="matrix(1, 0, 0, 1, 0, 0)" filter="url(#Rectangle_25)">
        <rect id="Rectangle_25-2" data-name="Rectangle 25" width="280" height="280" rx="35" transform="translate(251.24 34.76) rotate(120)" opacity="0.55" fill="url(#linear-gradient)"/>
      </g>
      <g transform="matrix(1, 0, 0, 1, 0, 0)" filter="url(#Rectangle_26)">
        <rect id="Rectangle_26-2" data-name="Rectangle 26" width="280" height="280" rx="35" transform="translate(108.24 669.76) rotate(120)" opacity="0.55" fill="url(#linear-gradient)"/>
      </g>
      <g transform="matrix(1, 0, 0, 1, 0, 0)" filter="url(#Rectangle_27)">
        <rect id="Rectangle_27-2" data-name="Rectangle 27" width="280" height="280" rx="35" transform="translate(286.24 396.76) rotate(120)" opacity="0.55" fill="url(#linear-gradient)"/>
      </g>
      <g id="Path_17" data-name="Path 17" transform="translate(882 602)" fill="#fff">
        <path d="M414,896h0Z" stroke="none"/>
        <path d="M 0 896 L 414 896 L 0 896 Z" stroke="none" fill="#707070"/>
      </g>
    </g>
  </g>
</svg>
