<svg id="Layer_1" data-name="Layer 1" xmlns="http://www.w3.org/2000/svg" viewBox="0 0 500 439.13">
  <defs>
    <style>
      .cls-1, .cls-5 {
        fill: #010101;
      }

      .cls-1, .cls-4 {
        opacity: 0.13;
      }

      .cls-2 {
        fill: #fff;
      }

      .cls-3 {
        fill: #838383;
      }
    </style>
  </defs>
  <title>textbubbles</title>
  <path class="cls-1" d="M82.2,126.13c59.9-53.25,162.32-94.94,233.24-59,28.15,14.26,22.68,26.23,77.93,80.23,72.15,70.5,101.33,69.49,106,93.41,17.06,87-328.87,304.74-449.85,201.71-51.18-43.58-62.47-144.87-35-220.62C33.29,170.33,66.5,140.09,82.2,126.13Z" transform="translate(0 -30.43)"/>
  <path class="cls-2" d="M305.7,359.37,311.43,388l-30.92-28.65H222a78.51,78.51,0,0,1-78.51-78.51h0A78.51,78.51,0,0,1,222,202.35H305.7a78.51,78.51,0,0,1,78.51,78.51h0A78.51,78.51,0,0,1,305.7,359.37Z" transform="translate(0 -30.43)"/>
  <path class="cls-3" d="M162.43,187.45H78.76c-5.15,0-31.22,33-36.1,32.09-5.37-1,10.47-36.18,5.55-38.26A78.53,78.53,0,0,1,.26,108.94h0a78.51,78.51,0,0,1,78.5-78.51h83.67a78.51,78.51,0,0,1,78.51,78.51h0A78.51,78.51,0,0,1,162.43,187.45Z" transform="translate(0 -30.43)"/>
  <g class="cls-4">
    <circle class="cls-5" cx="222.84" cy="250.43" r="10.55"/>
    <circle class="cls-5" cx="265.04" cy="250.43" r="10.55"/>
    <circle class="cls-5" cx="304.89" cy="250.43" r="10.55"/>
  </g>
  <g>
    <circle class="cls-2" cx="79.57" cy="81.37" r="10.55"/>
    <circle class="cls-2" cx="121.77" cy="81.37" r="10.55"/>
    <circle class="cls-2" cx="161.62" cy="81.37" r="10.55"/>
  </g>
</svg>
